<svg id="ImqEjl.tif_1_" xmlns="http://www.w3.org/2000/svg" width="34.157" height="34.155" viewBox="0 0 34.157 34.155">
  <g id="Group_12" data-name="Group 12" transform="translate(0 0)">
    <path id="Path_9" data-name="Path 9" d="M17.064,0A17.077,17.077,0,1,1,0,17.072,17.067,17.067,0,0,1,17.064,0ZM14.25,22.269c0,1.612.013,3.226-.01,4.837-.005.384.115.464.474.457,1.151-.023,2.3-.029,3.455,0,.408.012.475-.123.474-.494-.014-3.212,0-6.424-.017-9.636,0-.362.105-.449.449-.437.742.025,1.485,0,2.227.012.218,0,.308-.042.329-.286.085-.994.2-1.985.3-2.978.048-.464.046-.464-.43-.464H18.966c-.169,0-.337.023-.333-.24.011-.678-.015-1.358.014-2.034a.863.863,0,0,1,.984-.926c.665-.006,1.331-.007,2,0,.2,0,.3-.028.3-.266q-.016-1.555,0-3.11c0-.216-.092-.251-.276-.25-1.151.008-2.3-.034-3.454.019a3.9,3.9,0,0,0-3.9,3.741c-.1.919-.035,1.841-.045,2.762,0,.234-.069.315-.306.308-.5-.015-1,0-1.5-.007-.21,0-.292.059-.29.283q.015,1.593,0,3.186c0,.2.066.266.264.261.46-.012.922.017,1.381-.01.338-.02.455.065.45.431C14.237,19.043,14.25,20.656,14.25,22.269Z" transform="translate(0 0.001)" fill="#fff"/>
  </g>
</svg>
