<svg xmlns="http://www.w3.org/2000/svg" width="34.154" height="34.155" viewBox="0 0 34.154 34.155">
  <g id="Group_13" data-name="Group 13" transform="translate(0 0)">
    <path id="Path_10" data-name="Path 10" d="M17.066,0A17.077,17.077,0,1,1,0,17.1,17.062,17.062,0,0,1,17.066,0ZM6.964,24.518a1.18,1.18,0,0,0,.1.12c.052.037.105.073.161.1a12.2,12.2,0,0,0,18.451-10.7A.729.729,0,0,1,26,13.379a7.739,7.739,0,0,0,1.8-1.95,8.761,8.761,0,0,1-2.373.623A4.461,4.461,0,0,0,27.21,9.785a.665.665,0,0,0-.373.144,9.474,9.474,0,0,1-2.007.749.5.5,0,0,1-.517-.126A4.274,4.274,0,0,0,19.534,9.8a4.342,4.342,0,0,0-2.465,4.174c.008.223.226.523-.016.654-.181.1-.474,0-.715-.029a12.119,12.119,0,0,1-7.8-4.169c-.209-.239-.277-.192-.4.065A4.328,4.328,0,0,0,9.213,15.6c.1.088.247.139.29.31a4.708,4.708,0,0,1-1.8-.5,4.178,4.178,0,0,0,.919,2.7,4.448,4.448,0,0,0,2.462,1.554,5.112,5.112,0,0,1-1.863.106,4.254,4.254,0,0,0,1.5,2.092,4.543,4.543,0,0,0,2.491.883A8.773,8.773,0,0,1,6.964,24.518Z" transform="translate(0.002 0)" fill="#fff"/>
  </g>
</svg>
