<svg id="XgXuJE.tif_1_" xmlns="http://www.w3.org/2000/svg" width="34.159" height="34.155" viewBox="0 0 34.159 34.155">
  <g id="Group_14" data-name="Group 14" transform="translate(0 0)">
    <path id="Path_11" data-name="Path 11" d="M17.239,34.153A17.077,17.077,0,1,1,34.157,16.918,17.112,17.112,0,0,1,17.239,34.153ZM7.591,17.008c0,1.277-.01,2.555,0,3.832A5.566,5.566,0,0,0,13.3,26.562q3.775.031,7.551,0a5.56,5.56,0,0,0,5.712-5.714c.019-2.529,0-5.059,0-7.589a5.219,5.219,0,0,0-.46-2.288A5.517,5.517,0,0,0,20.84,7.6c-2.5-.018-5.009-.007-7.513,0a6.178,6.178,0,0,0-1.02.073A5.565,5.565,0,0,0,7.6,13.214C7.576,14.478,7.592,15.743,7.591,17.008Z" transform="translate(0.001 0.001)" fill="#fff"/>
    <path id="Path_12" data-name="Path 12" d="M169.706,165.19a4.513,4.513,0,1,1-4.516,4.491A4.473,4.473,0,0,1,169.706,165.19Z" transform="translate(-152.623 -152.624)" fill="#fff"/>
    <path id="Path_13" data-name="Path 13" d="M279.227,146.973a.983.983,0,1,1,.98-1A.977.977,0,0,1,279.227,146.973Z" transform="translate(-257.074 -133.975)" fill="#fff"/>
  </g>
</svg>
