<svg id="wuhmM1.tif_1_" xmlns="http://www.w3.org/2000/svg" width="34.156" height="34.155" viewBox="0 0 34.156 34.155">
  <g id="Group_15" data-name="Group 15" transform="translate(0 0)">
    <path id="Path_14" data-name="Path 14" d="M0,17.079A17.078,17.078,0,1,1,17.081,34.155,17.065,17.065,0,0,1,0,17.079ZM18.73,15.1c0-.5-.013-.9.005-1.308.01-.23-.063-.3-.292-.294q-1.639.017-3.278,0c-.249,0-.308.079-.307.318q.009,5.475,0,10.951c0,.285.061.382.365.377q1.564-.03,3.128,0c.309.006.392-.078.39-.388-.014-2.061,0-4.122-.01-6.182a2.277,2.277,0,0,1,.579-1.6,2,2,0,0,1,2.025-.633A1.724,1.724,0,0,1,22.652,17.7a5.035,5.035,0,0,1,.151,1.4c0,1.887.006,3.774-.005,5.661,0,.283.064.385.367.379,1.03-.019,2.061-.022,3.091,0,.33.007.417-.085.414-.412-.015-2.048-.006-4.1-.009-6.146a8.578,8.578,0,0,0-.109-1.521,4.225,4.225,0,0,0-2.644-3.547A4.268,4.268,0,0,0,18.73,15.1Zm-6.012,4.193c0-1.813-.005-3.626.006-5.439,0-.27-.061-.364-.348-.358q-1.583.026-3.166,0c-.276,0-.358.07-.358.352q.013,5.457,0,10.914c0,.283.066.385.37.379q1.564-.029,3.129,0c.295.005.375-.081.373-.373C12.711,22.939,12.717,21.114,12.717,19.288ZM10.772,11.9A2.059,2.059,0,0,0,12.9,10.447,1.986,1.986,0,0,0,11.582,8,2.229,2.229,0,0,0,8.741,9.22,2.007,2.007,0,0,0,10.772,11.9Z" transform="translate(0 0)" fill="#fff"/>
  </g>
</svg>
