<svg xmlns="http://www.w3.org/2000/svg" width="185.815" height="185.853" viewBox="0 0 185.815 185.853">
  <g id="_x33_Bdf5K.tif_1_" transform="translate(0 -0.1)">
    <g id="Group_17" data-name="Group 17" transform="translate(0 0.1)">
      <path id="Path_24" data-name="Path 24" d="M185.815,82.189V181.17c-.228.418-.456.816-.683,1.234a6.107,6.107,0,0,1-5.694,3.511q-86.492,0-173,.038a6.161,6.161,0,0,1-4.081-1.442A6.072,6.072,0,0,1,0,179.766Q.028,132.9,0,86.023a6.062,6.062,0,0,1,5.523-5.9c1.518-.038,3.037-.152,4.555-.152q14.634-.028,29.286-.038c1.461,0,1.291.228,1.291-1.31q.085-36.84.171-73.662a2.032,2.032,0,0,1,.095-1.12C42,2.093,43.313.688,45.533.423,47.412.195,49.329.4,51.189.1h70.34c.418.228.816.475,1.234.683a5.543,5.543,0,0,1,3.359,5.068c.114,1.86.152,3.72.152,5.58,0,9.946.019,19.91,0,29.856a1.388,1.388,0,0,0,.911,1.5c4.821,2.278,9.6,4.631,14.406,6.966C155.276,56.4,168.961,63.019,182.57,69.8a5.048,5.048,0,0,1,2.9,4.327c.209,2.183.133,4.365.228,6.529C185.721,81.183,185.777,81.677,185.815,82.189ZM177.1,126.811h-.19q0-24.684.019-49.386a1.131,1.131,0,0,0-.721-1.234q-24.37-11.787-48.7-23.649c-.835-.4-.987-.076-1.006.607-.076,1.822-.19,3.663-.19,5.485q-.114,13.324-.171,26.648a1.829,1.829,0,0,1-.645,1.48,14.677,14.677,0,0,1-2.619,1.689c-13.381,7.516-26.99,14.577-40.542,21.77a1.406,1.406,0,0,0-.854,1.461q-.057,32.228-.19,64.475c0,.873.247,1.082,1.1,1.082q46.833-.028,93.667,0c.892,0,1.063-.266,1.063-1.1Q177.094,151.429,177.1,126.811ZM72.6,133q0-21.609.019-43.237c0-.873-.152-1.158-1.1-1.158q-30.862.057-61.723,0c-.835,0-1.1.171-1.1,1.063q.028,43.218,0,86.454c0,.892.266,1.063,1.1,1.063q30.8-.028,61.628,0c.911,0,1.215-.171,1.215-1.158Q72.58,154.532,72.6,133Zm44.793-87.612h.171q0-17.822.019-35.645c0-.721-.152-.949-.911-.949q-33.168.028-66.355,0c-.8,0-.987.228-.987,1.006.038,7.934.019,15.867.019,23.8q0,22.662-.019,45.325c0,.74.133,1.025.968,1.025,8.655.038,17.31.152,25.965.133,1.727,0,3.094.285,4.195,1.708a2.607,2.607,0,0,1,.7,1.746c.076,5.466.209,10.933.3,16.4.019.721.038,1.044.911.588q17.111-9.167,34.259-18.24a1.279,1.279,0,0,0,.778-1.31Q117.383,63.124,117.392,45.387Z" transform="translate(0 -0.1)" fill="#fff"/>
      <path id="Path_25" data-name="Path 25" d="M498.9,772.319c2.847,0,5.694.019,8.522-.019.7,0,.987.133.987.93-.038,4.745-.019,9.471,0,14.216,0,.645-.171.873-.835.873q-8.627-.028-17.253,0c-.588,0-.816-.114-.816-.778q.057-7.2,0-14.406c0-.7.228-.835.873-.816C493.2,772.338,496.048,772.319,498.9,772.319Z" transform="translate(-396.592 -625.735)" fill="#fff"/>
      <path id="Path_26" data-name="Path 26" d="M766.633,788.374c-2.866,0-5.751-.019-8.617.019-.588,0-.816-.133-.816-.778q.057-7.2,0-14.406c0-.7.228-.835.873-.816q8.57.028,17.158,0c.759,0,.873.266.873.93-.019,4.707-.038,9.414,0,14.121,0,.835-.285.987-1.044.968C772.251,788.355,769.442,788.374,766.633,788.374Z" transform="translate(-613.482 -625.809)" fill="#fff"/>
      <path id="Path_27" data-name="Path 27" d="M498.876,639.181c-2.847,0-5.694-.019-8.522.019-.645,0-.854-.152-.854-.835.038-4.764.038-9.547,0-14.311,0-.664.152-.854.835-.854q8.626.028,17.253,0c.683,0,.835.228.835.873-.019,4.745-.019,9.471,0,14.216,0,.7-.19.911-.911.892C504.627,639.162,501.761,639.181,498.876,639.181Z" transform="translate(-396.592 -504.935)" fill="#fff"/>
      <path id="Path_28" data-name="Path 28" d="M632.676,639.262c-2.847,0-5.694-.019-8.522.019-.664,0-.854-.171-.854-.835.038-4.764.038-9.547,0-14.311,0-.664.171-.835.835-.835q8.627.028,17.253,0c.607,0,.816.152.816.778q-.028,7.2,0,14.406c0,.626-.19.8-.816.8C638.484,639.243,635.58,639.262,632.676,639.262Z" transform="translate(-504.997 -505.016)" fill="#fff"/>
      <path id="Path_29" data-name="Path 29" d="M766.6,639.262c-2.847,0-5.694-.019-8.522.019-.626,0-.873-.095-.873-.816q.057-7.2,0-14.406c0-.645.228-.759.816-.759q8.626.028,17.253,0c.664,0,.854.19.835.854-.019,4.764-.019,9.547,0,14.311,0,.7-.247.835-.873.816C772.346,639.243,769.461,639.262,766.6,639.262Z" transform="translate(-613.482 -505.016)" fill="#fff"/>
      <path id="Path_30" data-name="Path 30" d="M766.5,490.181c-2.847,0-5.694-.019-8.522.019-.626,0-.873-.114-.873-.816.038-4.764.019-9.528,0-14.311,0-.626.133-.873.816-.873q8.627.028,17.234,0c.683,0,.835.247.835.873-.019,4.745-.019,9.471,0,14.216,0,.683-.152.93-.892.911C772.246,490.143,769.38,490.181,766.5,490.181Z" transform="translate(-613.401 -384.215)" fill="#fff"/>
      <path id="Path_31" data-name="Path 31" d="M191.038,780.353c0-2.372.019-4.745-.019-7.1,0-.664.19-.854.854-.854,3.322.038,6.624.038,9.946,0,.645,0,.873.171.854.854-.019,4.764-.019,9.547,0,14.311,0,.664-.19.854-.854.854-3.322-.019-6.624-.019-9.946,0-.645,0-.873-.171-.873-.854C191.057,785.155,191.038,782.744,191.038,780.353Z" transform="translate(-154.748 -625.816)" fill="#fff"/>
      <path id="Path_32" data-name="Path 32" d="M252.415,663.427c0-1.67.019-3.341-.019-5.03-.019-.645.228-.8.816-.8,3.34.019,6.7.019,10.04,0,.645,0,.778.247.778.835-.019,3.341-.019,6.7,0,10.041,0,.626-.19.8-.8.8-3.341-.019-6.7-.019-10.041,0-.645,0-.8-.247-.778-.835C252.434,666.767,252.415,665.1,252.415,663.427Z" transform="translate(-204.49 -532.806)" fill="#fff"/>
      <path id="Path_33" data-name="Path 33" d="M129.911,663.542c0-1.67.019-3.341-.019-5.011-.019-.569.095-.854.759-.835q5.068.028,10.135,0c.607,0,.74.247.74.778q-.028,5.068,0,10.135c0,.588-.209.74-.778.74-3.34-.019-6.7-.038-10.04,0-.7,0-.835-.266-.816-.873C129.93,666.826,129.911,665.193,129.911,663.542Z" transform="translate(-105.237 -532.883)" fill="#fff"/>
      <path id="Path_34" data-name="Path 34" d="M141.616,541.2c0,1.708-.019,3.416.019,5.106,0,.531-.171.7-.7.7-3.416-.019-6.814-.019-10.23,0-.531,0-.7-.152-.7-.7.019-3.416.019-6.814,0-10.23,0-.55.171-.7.7-.683,3.416.019,6.814.019,10.23,0,.645,0,.7.266.7.8C141.6,537.842,141.616,539.512,141.616,541.2Z" transform="translate(-105.326 -433.793)" fill="#fff"/>
      <path id="Path_35" data-name="Path 35" d="M258.346,547c-1.67,0-3.341-.019-5.011.019-.569.019-.835-.114-.835-.759q.057-5.068,0-10.135c0-.626.228-.721.778-.721q5.068.028,10.135,0c.607,0,.721.209.721.759-.019,3.34-.038,6.7,0,10.04,0,.7-.228.835-.873.816C261.629,546.978,259.978,547,258.346,547Z" transform="translate(-204.575 -433.799)" fill="#fff"/>
      <path id="Path_36" data-name="Path 36" d="M354.391,168.114c1.917,0,3.853.019,5.77-.019.588,0,.816.133.816.8-.038,3.853-.019,7.706,0,11.54,0,.588-.19.74-.759.74q-5.779-.028-11.54,0c-.664,0-.778-.247-.778-.835q.028-5.723,0-11.445c0-.626.209-.816.816-.8C350.614,168.133,352.512,168.114,354.391,168.114Z" transform="translate(-281.868 -136.208)" fill="#fff"/>
      <path id="Path_37" data-name="Path 37" d="M361.058,308.647c0,1.917-.019,3.853.019,5.77,0,.588-.114.835-.759.835-3.853-.038-7.706-.019-11.54,0-.569,0-.778-.152-.778-.74q.028-5.779,0-11.54c0-.645.247-.8.835-.778q5.723.028,11.445,0c.607,0,.816.171.8.8C361.039,304.851,361.058,306.749,361.058,308.647Z" transform="translate(-281.949 -244.855)" fill="#fff"/>
      <path id="Path_38" data-name="Path 38" d="M484.548,168.112c1.86,0,3.72.019,5.58-.019.664-.019.949.114.949.873-.038,3.8-.038,7.573,0,11.369,0,.664-.209.854-.854.854-3.8-.019-7.573-.019-11.369,0-.664,0-.854-.19-.854-.854.019-3.8.019-7.573,0-11.369,0-.664.209-.873.854-.854C480.752,168.131,482.65,168.112,484.548,168.112Z" transform="translate(-387.275 -136.206)" fill="#fff"/>
      <path id="Path_39" data-name="Path 39" d="M484.472,315.158c-1.86,0-3.72-.019-5.58.019-.626.019-.892-.114-.892-.816.038-3.815.019-7.649,0-11.464,0-.626.209-.8.816-.8,3.815.019,7.649.019,11.464,0,.645,0,.778.247.778.835-.019,3.815-.019,7.649,0,11.464,0,.645-.228.8-.816.778C488.325,315.139,486.408,315.158,484.472,315.158Z" transform="translate(-387.275 -244.78)" fill="#fff"/>
    </g>
  </g>
</svg>
