<svg xmlns="http://www.w3.org/2000/svg" width="49.576" height="49.578" viewBox="0 0 49.576 49.578">
  <g id="bQNulV_2_" transform="translate(0 0.017)">
    <g id="Group_3" data-name="Group 3" transform="translate(0 -0.017)">
      <path id="Path_4" data-name="Path 4" d="M0,24.747A24.636,24.636,0,0,1,24.559-.016a24.628,24.628,0,0,1,25.017,24.8A24.623,24.623,0,0,1,25,49.56,24.631,24.631,0,0,1,0,24.747ZM24.713,45.315a19.468,19.468,0,0,0,2.813-.2,22.056,22.056,0,0,0,12.543-6.6,2.727,2.727,0,0,0,.019-3.743A22.822,22.822,0,0,0,34.4,30.182,18.954,18.954,0,0,0,20.977,28,21.088,21.088,0,0,0,9.432,34.842a2.706,2.706,0,0,0,.019,3.6A20.289,20.289,0,0,0,24.713,45.315Zm.062-21.256a7.081,7.081,0,1,0-7.058-7.188A7.1,7.1,0,0,0,24.775,24.06Z" transform="translate(0 0.017)" fill="#2db000"/>
    </g>
  </g>
</svg>
