<svg xmlns="http://www.w3.org/2000/svg" width="363" height="104.043" viewBox="0 0 363 104.043">
  <g id="Group_38" data-name="Group 38" transform="translate(0.066 -0.066)">
    <g id="Group_36" data-name="Group 36" transform="translate(-0.066 0.066)">
      <path id="Path_68" data-name="Path 68" d="M276.161,31.4l1.147,34.18-3.44,1.72L245.2,63.419Z" transform="translate(-137.029 -17.581)" fill="#aae000"/>
      <path id="Path_69" data-name="Path 69" d="M224.394,27.1l3.749,24.7L216.058,63.926l-3.7,3L204.9,35.039l9.747-6.174Z" transform="translate(-114.503 -15.177)" fill="#aae000"/>
      <path id="Path_70" data-name="Path 70" d="M204.9,123.037,216.058,110.6l35.283,6.219-11.82,11.864-11.379,2.382-12.084-1.72Z" transform="translate(-114.503 -61.851)" fill="#2db000"/>
      <path id="Path_71" data-name="Path 71" d="M191.25,49.9l7.63,28.579-3.793,11.776L187.9,87.961l-4.5-17.906,2.205-11.908Z" transform="translate(-102.485 -27.922)" fill="#61d600"/>
      <path id="Path_72" data-name="Path 72" d="M233.111,104l33.607,5.866-3.484,5.91L230.2,109.91Z" transform="translate(-128.645 -58.162)" fill="#61d600"/>
      <path id="Path_73" data-name="Path 73" d="M279.909,27.1H253.8l3.969,20.993Z" transform="translate(-141.836 -15.177)" fill="#61d600"/>
      <g id="_x39_azgRw.tif_1_" transform="translate(0)">
        <g id="Group_35" data-name="Group 35">
          <path id="Path_74" data-name="Path 74" d="M412.935,10.85c-3.661,8.424-7.189,16.539-10.717,24.61-5.16,11.908-10.408,23.816-15.436,35.812-.97,2.337-2.514,1.9-4.234,2.029-1.676.132-2.779-.221-3.528-2.029-8.247-19.406-16.627-38.811-24.963-58.217-.265-.662-.617-1.323-.97-2.161-.75.97-.441,1.941-.441,2.779q.066,28.513.221,57.07c0,2.073-.662,2.6-2.6,2.514-5.16-.221-4.5.75-4.5-4.587-.044-21.3,0-42.6,0-63.906,0-2.867,0-2.867,2.823-2.911a29.655,29.655,0,0,0,4.851-.044c2.69-.4,3.749.882,4.719,3.175q11.71,28.248,23.684,56.364c.221.573.529,1.147.882,1.9a18.529,18.529,0,0,0,2.337-4.675q11.908-27.322,23.728-54.688c.706-1.632,1.544-2.205,3.264-2.073a41.22,41.22,0,0,0,6.174,0c2.073-.176,2.514.662,2.382,2.514-.132,1.985-.044,3.969-.044,5.91V70.17c0,3,0,3.043-2.955,3-4.807-.044-4.146.617-4.146-4.234-.044-18.435,0-36.871-.044-55.306A4.346,4.346,0,0,0,412.935,10.85Z" transform="translate(-193.226 -1)" fill="#fff"/>
          <path id="Path_75" data-name="Path 75" d="M240.289,38.118c0,4.675.088,9.35,0,14.069C239.98,64.8,234.423,74.5,223.132,80.281c-11.423,5.822-22.846,4.94-33.475-2.337-1.9-1.323-2.823-1.191-4.278.441-2.073,2.337-4.5,4.41-6.66,6.7-.926,1.014-1.588,1.058-2.426-.044a8.173,8.173,0,0,0-1.235-1.235c-.97-.706-.794-1.279,0-2.073,2.6-2.514,5.028-5.116,7.674-7.542,1.058-.97.97-1.588.176-2.69-14.2-19.229-4.366-45.294,19.1-50.454a26.584,26.584,0,0,1,5.866-.662c10.144-.044,20.243,0,30.387-.088,1.632,0,2.117.4,2.117,2.073C240.2,27.577,240.289,32.825,240.289,38.118ZM207.917,78.869c10.232-.088,17.6-4.675,23.419-12.173,1.1-1.455,1.014-2.205-1.014-2.514-8.071-1.235-16.142-2.6-24.257-3.925a3.264,3.264,0,0,0-3.352,1.1,131.721,131.721,0,0,1-9.747,10.1c-1.367,1.323-1.058,2.117.4,3.043A28.239,28.239,0,0,0,207.917,78.869Zm2.073-32.9c-1.1-6.571-2.205-13.1-3.308-19.67-.132-.838-.573-1.191-1.544-1.058a28.148,28.148,0,0,0-13.319,5.292,2.244,2.244,0,0,0-.926,2.646c1.676,8.468,3.352,16.892,4.94,25.36.309,1.632.706,1.676,1.808.573,3.837-3.837,7.674-7.63,11.511-11.467C209.548,47.159,210.078,46.718,209.989,45.968Zm25.536-16.8a10.378,10.378,0,0,0-1.147.706q-12.173,12.04-24.345,24.169c-1.1,1.1-.706,1.5.662,1.72,7.1,1.147,14.2,2.205,21.258,3.528,2.293.441,3-.441,3.175-2.47C235.922,47.776,235.217,38.691,235.525,29.165ZM186,36.574c-.485.617-.662.838-.838,1.058-.221.309-.441.617-.617.926A27.757,27.757,0,0,0,181.5,57.215,24.817,24.817,0,0,0,186,67.8c.4.529.617,1.455,1.632,1.1,1.852-.662,4.013-4.322,3.616-6.307-1.191-6.174-2.382-12.3-3.616-18.435A43.494,43.494,0,0,0,186,36.574Zm45.03-11.511H213.341c-1.1,0-1.544.353-1.279,1.588.573,2.779.97,5.6,1.411,8.424a53.185,53.185,0,0,0,1.191,6.527C220.133,36.089,225.47,30.664,231.027,25.063Z" transform="translate(-97.452 -11.376)" fill="#fff"/>
          <path id="Path_76" data-name="Path 76" d="M52.049,39.686c7.321,0,14.686.044,22.008-.044,1.985-.044,2.249.529,1.941,2.382A37.242,37.242,0,0,1,44.507,73.2C22.764,76.6,4.858,61.694.933,45.243A36.541,36.541,0,0,1,31.056.61,51.006,51.006,0,0,1,47.021.787C57.871,2.639,65.368,9.034,70.793,18.3c.617,1.1.706,1.764-.882,1.676H69.25c-3.4.4-5.822-.573-8.2-3.44C54.739,8.9,46.139,6.167,36.348,6.52c-12.525.441-24.654,9.526-28.314,21.434C3.624,42.288,9.842,56.489,23.779,63.325c18.92,9.262,35.547.044,43.045-14.775,1.323-2.6,1.147-2.779-1.72-2.779-11.687-.044-23.331-.088-35.018-.044-1.941,0-2.69-.441-2.558-2.514.176-3.572.044-3.616,3.661-3.616H52.093Z" transform="translate(0.066 -0.066)" fill="#fff"/>
          <path id="Path_77" data-name="Path 77" d="M745.9,29.683V7.41c0-4.454,0-4.366,4.587-4.41,1.808,0,2.205.662,2.205,2.293-.044,7.895.044,15.789-.044,23.684-.088,7.674.485,15.348-.309,23.022-1.455,14.2-16.406,25.536-30.52,23.287-12.173-1.941-20.552-9.835-23.2-21.787-2.6-11.776,3.264-24.213,14.2-30.255,9.879-5.469,22.713-3.528,31.269,4.675C744.535,28.4,745.02,28.845,745.9,29.683ZM745.594,47.9c.441-11.29-9.482-21.434-20.685-20.949A20.936,20.936,0,0,0,725.7,68.8C736.773,68.67,745.682,59.32,745.594,47.9Z" transform="translate(-390.134 -1.706)" fill="#fff"/>
          <path id="Path_78" data-name="Path 78" d="M576.664,87.332c-3.925,4.19-8.247,7.233-13.628,8.468A26.936,26.936,0,0,1,533.178,83.23c-5.425-9.041-5.6-18.568-.485-27.741,5.16-9.218,13.231-14.334,24.036-14.29a27.407,27.407,0,0,1,27.08,27.653q-.066,12.173,0,24.345c0,1.588-.441,2.161-2.117,2.161-4.719,0-4.719.044-4.719-4.543A7.042,7.042,0,0,0,576.664,87.332Zm-40.487-18.7c-.044,11.687,9,21.17,20.288,21.258,11.114.088,20.464-9.57,20.464-21.126,0-11.379-9-20.729-19.979-20.773A20.34,20.34,0,0,0,536.177,68.632Z" transform="translate(-295.651 -23.058)" fill="#fff"/>
          <path id="Path_79" data-name="Path 79" d="M673.1,70.486c0,7.983-.044,15.921.044,23.9,0,1.852-.353,2.6-2.426,2.514-4.278-.132-4.278,0-4.278-4.366,0-15.26.044-30.564-.044-45.824,0-2.161.441-2.911,2.779-2.823,3.925.221,3.925.044,3.925,3.969Z" transform="translate(-372.465 -24.559)" fill="#fff"/>
          <path id="Path_80" data-name="Path 80" d="M666.5,8.085v-2.6c.044-3.749-.309-3.308,3.264-3.308,3.793,0,3.352-.485,3.352,3.4,0,2.337-.044,4.675,0,7.012.044,1.191-.4,1.632-1.632,1.72C666.5,14.568,666.5,14.613,666.5,8.085Z" transform="translate(-372.521 -1.234)" fill="#fff"/>
        </g>
      </g>
    </g>
    <g id="Group_37" data-name="Group 37" transform="translate(148.314 81.713)">
      <path id="Path_81" data-name="Path 81" d="M555.8,206.968c-5.116,2.558-9.218,1.367-10.761-3.087a6.36,6.36,0,0,1,1.632-7.057,6.268,6.268,0,0,1,6.7-1.588,6.119,6.119,0,0,1,4.543,5.6,61.99,61.99,0,0,1,.044,7.012,5.537,5.537,0,0,1-5.16,5.072c-3.352.441-6.307-1.058-7.233-3.661-.132-.4-.529-.882.176-1.014.617-.132,1.279-.221,1.676.573a4.542,4.542,0,0,0,5.16,2.426C554.568,210.937,555.759,209.394,555.8,206.968Zm.176-5.381a4.616,4.616,0,1,0-9.218.309,4.473,4.473,0,0,0,4.851,4.5A4.654,4.654,0,0,0,555.979,201.587Z" transform="translate(-452.764 -190.602)" fill="#fff"/>
      <path id="Path_82" data-name="Path 82" d="M773.29,195.1a6.889,6.889,0,0,1,6.836,5.645c.176,1.279-.132,1.9-1.588,1.852-2.646-.088-5.292-.044-7.895,0-.573,0-1.367-.221-1.544.441a2.3,2.3,0,0,0,.529,1.588,4.811,4.811,0,0,0,7.277.617,6.583,6.583,0,0,0,.662-.882,1.345,1.345,0,0,1,1.941-.309c.529.4-.088,1.058-.353,1.5a6.724,6.724,0,0,1-7.85,2.69A6.753,6.753,0,0,1,773.29,195.1Zm.044,5.689c1.014,0,2.029.044,3.087,0,.485,0,1.1.221,1.323-.4.176-.529-.176-.97-.485-1.411a4.809,4.809,0,0,0-7.586-.044c-.353.485-.794,1.014-.441,1.588.265.441.926.221,1.411.265Z" transform="translate(-576.928 -190.729)" fill="#fff"/>
      <path id="Path_83" data-name="Path 83" d="M635.668,202.654c-1.323,0-2.646.044-3.969,0-1.72-.044-1.676.75-.97,1.9a4.867,4.867,0,0,0,7.277.926c.353-.353.617-.838.97-1.191a1.289,1.289,0,0,1,1.632-.176c.75.441.088,1.058-.176,1.455a6.744,6.744,0,0,1-7.806,2.823c-3.131-1.147-5.16-4.41-4.631-7.365a6.8,6.8,0,0,1,6.66-5.822,6.917,6.917,0,0,1,6.66,5.337c.221,1.323.088,2.293-1.676,2.161-1.323-.132-2.646-.044-3.969-.044Zm-.926-1.808c.97,0,1.9.044,2.867,0,.485,0,1.147.221,1.411-.309.265-.573-.176-1.1-.529-1.588a4.816,4.816,0,0,0-7.321-.176c-.4.485-1.014,1.058-.661,1.72.309.617,1.058.265,1.632.309A25.389,25.389,0,0,0,634.742,200.845Z" transform="translate(-499.331 -190.786)" fill="#fff"/>
      <path id="Path_84" data-name="Path 84" d="M397.5,208.629a6.73,6.73,0,0,1-6.616-6.307,6.836,6.836,0,0,1,5.689-7.189,6.922,6.922,0,0,1,7.63,5.425c.353,1.588-.132,2.117-1.72,2.073-2.646-.088-5.248,0-7.895-.044-1.72-.044-1.632.706-.97,1.852a4.818,4.818,0,0,0,7.409.838c.309-.309.485-.75.794-1.014a1.368,1.368,0,0,1,1.808-.176c.441.353-.044.926-.265,1.367A6.674,6.674,0,0,1,397.5,208.629Zm.132-7.85h3.308c1.147,0,1.147-.529.706-1.411-1.455-2.779-6-3.043-7.806-.4-.309.441-.882,1.014-.485,1.544.221.265.926.221,1.411.265C395.74,200.823,396.711,200.779,397.637,200.779Z" transform="translate(-366.839 -190.719)" fill="#fff"/>
      <path id="Path_85" data-name="Path 85" d="M353.01,190.226a2.3,2.3,0,0,1-2.69-.75,6.807,6.807,0,0,0-9.835-.088,6.883,6.883,0,0,0-.132,9.835c2.734,2.823,6.792,2.867,9.879.132a3.675,3.675,0,0,1,.97-.882,1.535,1.535,0,0,1,1.676.088c.441.485-.176.926-.441,1.323-1.941,2.823-6.4,4.146-9.835,3a9.121,9.121,0,0,1-6.219-9.085,8.861,8.861,0,0,1,6.836-8.115,9,9,0,0,1,9.7,3.925C352.966,189.74,352.966,189.961,353.01,190.226Z" transform="translate(-336.37 -185.326)" fill="#fff"/>
      <path id="Path_86" data-name="Path 86" d="M441.494,204.246v2.867c0,.529,0,1.058-.706,1.147-.441.044-1.058.176-1.191-.265-.353-1.279-.97-.617-1.588-.309-3.087,1.544-6.086,1.1-8.2-1.191a6.793,6.793,0,0,1-.838-8.115,6.655,6.655,0,0,1,7.1-3.175,6.993,6.993,0,0,1,5.381,6.616C441.494,202.659,441.494,203.452,441.494,204.246Zm-6.748,2.293a4.72,4.72,0,0,0,.044-9.438,4.605,4.605,0,0,0-4.675,4.719A4.469,4.469,0,0,0,434.747,206.54Z" transform="translate(-387.587 -190.703)" fill="#fff"/>
      <path id="Path_87" data-name="Path 87" d="M602.906,203.1a5.091,5.091,0,0,1-5.028-3.528c-.176-.617-.662-1.5.485-1.764.75-.176,1.279-.044,1.544.97.441,1.764,1.764,2.426,3.528,2.205a2.8,2.8,0,0,0,2.646-2.514c.309-1.808-.75-2.867-2.338-3.484-.838-.309-1.676-.529-2.514-.838a4.444,4.444,0,0,1-3.087-5.16,4.87,4.87,0,0,1,9.394-.4c.132.529.485,1.235-.309,1.5-.662.221-1.323.265-1.676-.794a2.7,2.7,0,0,0-3.616-1.941,2.478,2.478,0,0,0-1.808,2.47,2.246,2.246,0,0,0,1.588,2.337c1.1.4,2.249.706,3.308,1.191a4.849,4.849,0,0,1,3,5.689A5.167,5.167,0,0,1,602.906,203.1Z" transform="translate(-482.402 -185.191)" fill="#fff"/>
      <path id="Path_88" data-name="Path 88" d="M744.088,204.536c-1.632,3.264-4.234,4.587-7.63,4.058a7.127,7.127,0,0,1-5.733-5.91,6.787,6.787,0,0,1,4.013-6.924,7.116,7.116,0,0,1,8.071,1.455c.529.573,1.5,1.411.926,1.985-.662.706-1.72.309-2.426-.529a4.848,4.848,0,1,0-6,7.409,5.327,5.327,0,0,0,5.733-.662A2.643,2.643,0,0,1,744.088,204.536Z" transform="translate(-556.768 -190.728)" fill="#fff"/>
      <path id="Path_89" data-name="Path 89" d="M522.563,204.064v3.308c0,.75-.441,1.014-1.147.97s-.794-.529-.794-1.058v-5.469c-.044-2.867-1.544-4.675-3.881-4.631-2.293.044-3.661,1.764-3.7,4.543v5.028c0,.706.221,1.544-.97,1.588-1.1.044-1.1-.662-1.1-1.455,0-2.029-.088-4.1.044-6.13a5.781,5.781,0,0,1,11.555.044c.088,1.058,0,2.161,0,3.264Z" transform="translate(-433.946 -190.785)" fill="#fff"/>
      <path id="Path_90" data-name="Path 90" d="M477.214,203.9v3.308c0,.573.044,1.191-.838,1.235s-1.147-.4-1.147-1.235v-5.689c-.044-2.6-1.544-4.234-3.749-4.234-2.161,0-3.7,1.676-3.793,4.234-.044,1.808,0,3.661-.044,5.469,0,.662.044,1.411-.926,1.411-1.014,0-.926-.75-.926-1.367,0-2.249-.044-4.543.088-6.792a5.438,5.438,0,0,1,5.469-4.94,5.6,5.6,0,0,1,5.778,4.9c.132,1.191.044,2.47.088,3.7Z" transform="translate(-408.708 -190.841)" fill="#fff"/>
      <path id="Path_91" data-name="Path 91" d="M808.318,208.744a3.869,3.869,0,0,1-4.013-3c-.088-.441-.441-1.1.353-1.235.529-.088,1.191-.309,1.455.529a4.148,4.148,0,0,0,.529.97,2.054,2.054,0,0,0,2.382.662,1.644,1.644,0,0,0,1.235-1.632,1.756,1.756,0,0,0-1.1-1.941c-.794-.353-1.632-.617-2.47-.926a3.2,3.2,0,0,1-2.073-3.7,3.769,3.769,0,0,1,7.145-.97c.176.4.706,1.014.132,1.367a1.312,1.312,0,0,1-1.764-.221,6.3,6.3,0,0,0-.617-.882,1.539,1.539,0,0,0-2.47.309,1.437,1.437,0,0,0,.573,2.249c.75.4,1.632.617,2.426.97a3.686,3.686,0,0,1,2.337,4.454A4.207,4.207,0,0,1,808.318,208.744Z" transform="translate(-597.843 -190.834)" fill="#fff"/>
      <path id="Path_92" data-name="Path 92" d="M696.281,196.2c-1.676,3.969-3.264,7.806-4.851,11.643a1.523,1.523,0,0,1-2.823.044c-1.588-3.881-3.175-7.806-4.807-11.687,1.455-.573,2.161-.088,2.646,1.191,1.058,2.69,2.249,5.381,3.572,8.556,1.323-3.175,2.514-5.866,3.528-8.556C694.032,196.11,694.738,195.624,696.281,196.2Z" transform="translate(-530.571 -191.21)" fill="#fff"/>
      <path id="Path_93" data-name="Path 93" d="M664.8,201.773c0-1.676.044-3.352,0-5.028-.044-1.014.662-1.544,1.279-1.1,1.235.926,2.029.088,3-.221.485-.176,1.058-.309,1.235.4.088.529.309,1.235-.485,1.455-2.779.75-2.911,2.867-2.823,5.2.044,1.588,0,3.22,0,4.807,0,.838-.4,1.147-1.235,1.147-.794-.044-.926-.529-.926-1.191C664.8,205.434,664.8,203.582,664.8,201.773Z" transform="translate(-519.948 -190.832)" fill="#fff"/>
      <path id="Path_94" data-name="Path 94" d="M380.652,194.6v7.012c0,.662.221,1.588-.926,1.588-.97,0-.926-.794-.926-1.411V187.367c0-.662,0-1.367.97-1.367,1.014.044.882.794.882,1.411Z" transform="translate(-360.087 -185.643)" fill="#fff"/>
      <path id="Path_95" data-name="Path 95" d="M501.129,202.48v5.248c0,.662-.221,1.1-.97,1.1a.936.936,0,0,1-1.059-1.058V197.055c0-.706.265-1.058,1.014-1.058.926-.044,1.058.529,1.058,1.235C501.129,198.952,501.129,200.716,501.129,202.48Z" transform="translate(-427.33 -191.23)" fill="#fff"/>
      <path id="Path_96" data-name="Path 96" d="M718.7,202.295v-5.028c0-.662-.044-1.323.97-1.367.926,0,1.059.529,1.059,1.279v10.276c0,.75-.176,1.279-1.059,1.279-.97-.044-.926-.75-.926-1.411C718.7,205.691,718.7,203.971,718.7,202.295Z" transform="translate(-550.079 -191.177)" fill="#fff"/>
    </g>
    <circle id="Ellipse_3" data-name="Ellipse 3" cx="0.838" cy="0.838" r="0.838" transform="translate(317.111 82.599)" fill="#fff"/>
    <circle id="Ellipse_4" data-name="Ellipse 4" cx="0.838" cy="0.838" r="0.838" transform="translate(220.26 82.599)" fill="#fff"/>
  </g>
</svg>
