<svg xmlns="http://www.w3.org/2000/svg" width="363" height="378" viewBox="0 0 363 378">
  <g id="Group_25" data-name="Group 25" transform="translate(-230 -2366)">
    <circle id="Ellipse_2" data-name="Ellipse 2" cx="181.5" cy="181.5" r="181.5" transform="translate(230 2366)" fill="#a9df00"/>
    <circle id="Ellipse_1" data-name="Ellipse 1" cx="181.5" cy="181.5" r="181.5" transform="translate(230 2381)" fill="#fff"/>
    <g id="AKGVMN.tif_1_" transform="translate(287.097 2483.389)">
      <g id="Group_23" data-name="Group 23" transform="translate(-0.1 0.075)">
        <path id="Path_44" data-name="Path 44" d="M-.075,71.863A9.256,9.256,0,0,0,1.375,69.4C13.351,47.58,25.556,25.89,37.812,4.251c.661-1.17,1.5-2.263,2.212-3.407A1.243,1.243,0,0,1,42.008.386c2.238,1.348,4.552,2.619,6.789,3.967,3.56,2.136,7.018,4.4,10.476,6.687,1.093.737,1.271,1.322.636,2.517C52.916,26.577,45.695,39.494,38.4,52.36,32.778,62.3,27.311,72.321,21.259,81.983c-1.932,3.1-1.373,2.975-4.6,1.271a157.612,157.612,0,0,1-14.748-8.9A10.923,10.923,0,0,1-.1,72.626C-.075,72.372-.075,72.117-.075,71.863Z" transform="translate(0.1 -0.075)" fill="#074000"/>
        <path id="Path_45" data-name="Path 45" d="M147.022,168.807c-.509-1.017-.915-1.831-1.373-2.644-3-5.467-8.467-8.416-14.265-7.73a12.346,12.346,0,0,0-6.662,3.153c-1.017.865-1.576.712-2.39-.305-2.7-3.433-5.467-6.789-8.264-10.12a1.189,1.189,0,0,1-.178-1.627q15.485-27.347,30.945-54.745c.305-.559.534-1.017,1.3-.483,6.281,4.45,13.5,6.026,20.927,7.043,4.043.559,4.043.636,1.78,3.967-3.051,4.5-6.281,8.925-9.128,13.578a22.386,22.386,0,0,0-3.738,11.9,7.489,7.489,0,0,0,6.713,7.12c7.018.636,13.273-1.449,19.147-5.06a49.093,49.093,0,0,0,13.451-12.765,6.147,6.147,0,0,1,3.662-2.441c1.958-.483,3.916-1.093,5.823-1.729a2.617,2.617,0,0,1,2.136.229c22.4,11.112,43.2,24.741,63.035,39.921,4.908,3.763,9.866,7.425,14.443,11.62,1.907,1.754,3.458,3.662,3.738,6.408.381,3.763-2.136,9.128-7.374,9.128-1.22,0-2.466.076-3.687.178a3.911,3.911,0,0,1-2.492-.636c-11.392-6.815-22.681-13.807-34.2-20.393a27.27,27.27,0,0,0-5.136-2.466c-1.017-.331-2.009-.483-2.594.788a1.923,1.923,0,0,0,.788,2.822c6.535,4.4,13.273,8.416,20.011,12.485,5.34,3.255,10.7,6.459,16.1,9.662a1.648,1.648,0,0,1,.966,1.6c-.051.763.051,1.526.076,2.288a8.52,8.52,0,0,1-7.73,8.8,12.078,12.078,0,0,1-7.832-1.449c-9.357-5.365-18.74-10.629-28.123-15.943-.483-.28-.966-.534-1.449-.788a2.645,2.645,0,0,0-3.814,1.551,1.629,1.629,0,0,0,.61,1.805,11.9,11.9,0,0,0,1.958,1.4c8.289,5.187,16.858,9.866,25.224,14.9a24.384,24.384,0,0,1,3.433,2.39,2.865,2.865,0,0,1,.992,3.407,29.519,29.519,0,0,1-1.068,2.975,7.572,7.572,0,0,1-5.747,4.3,16.033,16.033,0,0,1-9.484-1.475c-6.942-3-13.655-6.509-20.52-9.662a28.553,28.553,0,0,0-3.178-1.271,2.135,2.135,0,0,0-2.772,1.348,2.024,2.024,0,0,0,.992,2.873c6.281,3.407,12.765,6.382,19.147,9.637,1.4.712,2.746,1.475,4.145,2.187.712.356.763.814.28,1.4-3.2,3.84-6.84,6.865-12.256,6.891-7.857.051-15.307-1.831-22.63-4.5-.839-.305-.915-.737-.534-1.424a13.543,13.543,0,0,1,.89-1.551c5.162-7.476,1.119-16.375-4.984-19.961a16.762,16.762,0,0,0-6.84-2.187c-.966-.1-1.144-.509-1.043-1.373.661-5.95-3.255-13.044-11.036-15.46a6.017,6.017,0,0,0-2.517-.28c-.865.1-1.2-.2-1.17-1.119a20.054,20.054,0,0,0-.559-6.026,14.228,14.228,0,0,0-17.164-9.917,10.73,10.73,0,0,0-5.569,3.789A45.712,45.712,0,0,0,147.022,168.807Z" transform="translate(-84.724 -70.167)" fill="#074000"/>
        <path id="Path_46" data-name="Path 46" d="M301.315,115.514a8.769,8.769,0,0,1,1.551-5.289,324.773,324.773,0,0,1,18.638-26.9c1.6-2.136,3.941-2.975,6.357-3.636a98.533,98.533,0,0,1,16.757-2.8,181.8,181.8,0,0,1,21.054-.585c7.272.153,14.341,1.653,21.41,3.229A88.4,88.4,0,0,0,401.194,81.9c3.382.2,6.637-.661,9.891-1.373a2.1,2.1,0,0,1,2.721,1.2q14.875,26.47,29.877,52.889c.28.483.712.89.076,1.526-3.687,3.687-7.272,7.476-11.493,10.552-1.3.941-2.7,1.754-4.068,2.594a1.485,1.485,0,0,1-1.983-.2,490.661,490.661,0,0,0-41.726-30.615A333.306,333.306,0,0,0,348.534,98.1a6.152,6.152,0,0,0-5.086-.432c-3.28,1.119-6.611,2.11-9.917,3.1a2.688,2.688,0,0,0-1.424,1.373,44.6,44.6,0,0,1-14.621,14.036,25.45,25.45,0,0,1-12.409,3.585,7.1,7.1,0,0,1-1.271-.051c-1.983-.305-2.517-.915-2.517-2.924C301.315,116.455,301.315,116.175,301.315,115.514Z" transform="translate(-224.652 -56.872)" fill="#074000"/>
        <path id="Path_47" data-name="Path 47" d="M802.036,72.832c.025.509-.381.737-.712.941-1.653,1.17-3.306,2.339-5.035,3.433a131.853,131.853,0,0,1-12.205,7.018c-1.729.865-1.755.839-2.721-.788-8.594-14.468-16.782-29.14-25-43.811-4.755-8.467-9.51-16.96-14.036-25.555-.839-1.577-.839-1.78.61-2.822A162.628,162.628,0,0,1,760.106.695c1.043-.559,1.348.127,1.755.763,3.636,5.7,6.993,11.569,10.349,17.443,9.51,16.553,18.943,33.157,27.894,50.041.559,1.043,1.068,2.11,1.6,3.178A3.622,3.622,0,0,1,802.036,72.832Z" transform="translate(-553.127 -0.383)" fill="#074000"/>
        <path id="Path_48" data-name="Path 48" d="M234.765,384.84c.178,1.2-.687,2.466-1.551,3.738-3.407,5.009-7.069,9.79-10.654,14.672-1.755,2.39-3.56,4.729-5.416,7.043-2.772,3.484-6.535,3.2-9.561,1.449a9.5,9.5,0,0,1-4.933-7.832,5.79,5.79,0,0,1,1.068-3.84c5.365-7.654,10.781-15.257,16.655-22.529,2.772-3.407,6.128-3.865,9.79-1.373A10.191,10.191,0,0,1,234.765,384.84Z" transform="translate(-151.083 -279.361)" fill="#074000"/>
        <path id="Path_49" data-name="Path 49" d="M285.022,477.2a9.576,9.576,0,0,1-9.434-9.688,5.825,5.825,0,0,1,.992-3.229A191.97,191.97,0,0,1,291,445.158c1.271-1.5,3-1.475,4.679-1.2a9.58,9.58,0,0,1,8.086,10.12,5.971,5.971,0,0,1-1.068,3.077c-3.967,5.9-8.086,11.671-12.536,17.214C288.785,476.053,287.234,477.5,285.022,477.2Z" transform="translate(-205.485 -330.983)" fill="#074000"/>
        <path id="Path_50" data-name="Path 50" d="M376.408,521.7a5.189,5.189,0,0,1-.865,2.924,85.412,85.412,0,0,1-9.484,12.688,5.822,5.822,0,0,1-6.967,1.424,10.171,10.171,0,0,1-6.509-7.7,5.184,5.184,0,0,1,.61-3.916,90.294,90.294,0,0,1,9.764-13.4,5.271,5.271,0,0,1,4.6-1.678C372.009,512.318,376.434,517.073,376.408,521.7Z" transform="translate(-262.799 -381.843)" fill="#074000"/>
        <path id="Path_51" data-name="Path 51" d="M164.6,376.189a5.81,5.81,0,0,1-.865,3.382,53.457,53.457,0,0,1-6.408,8.34,5.559,5.559,0,0,1-6.255,1.526,10.278,10.278,0,0,1-7.12-7.883,5.6,5.6,0,0,1,.636-4.17,62.408,62.408,0,0,1,6.2-8.645c1.831-2.187,4.119-2.517,6.662-1.882A9.551,9.551,0,0,1,164.6,376.189Z" transform="translate(-107.209 -273.379)" fill="#074000"/>
      </g>
    </g>
  </g>
</svg>
