<svg xmlns="http://www.w3.org/2000/svg" width="363" height="378" viewBox="0 0 363 378">
  <g id="Group_31" data-name="Group 31" transform="translate(-230 -2366)">
    <circle id="Ellipse_2" data-name="Ellipse 2" cx="181.5" cy="181.5" r="181.5" transform="translate(230 2366)" fill="#a9df00"/>
    <circle id="Ellipse_1" data-name="Ellipse 1" cx="181.5" cy="181.5" r="181.5" transform="translate(230 2381)" fill="#fff"/>
  </g>
  <g id="_x31_E2HQY.tif_1_" transform="translate(121.357 98.542)">
    <g id="Group_28" data-name="Group 28" transform="translate(0 -0.002)">
      <path id="Path_52" data-name="Path 52" d="M0,103.716V29.909c0-3.075.842-3.881,3.917-3.881,8.457,0,16.914-.037,25.408.037a2.523,2.523,0,0,0,2.49-1.318,23.052,23.052,0,0,1,10.1-8.677A1.951,1.951,0,0,0,43.2,14.35C44.445,5.93,51,.072,59.235,0A16.564,16.564,0,0,1,76.076,14.167a2.143,2.143,0,0,0,1.355,1.9,21.819,21.819,0,0,1,9.775,8.494,2.851,2.851,0,0,0,2.782,1.464q12.8-.055,25.591-.037c2.965,0,3.807.842,3.807,3.807V177.559c0,2.892-.842,3.734-3.661,3.734H3.734c-2.965,0-3.734-.805-3.734-3.844Q0,140.6,0,103.716Zm15.889.586v58.65c0,1.025-.256,1.977,1.464,1.977q32.51-.055,65.057,0c1.172,0,1.574-.329,1.574-1.538-.073-4.576-.037-9.153-.037-13.692,0-2.6.879-3.478,3.551-3.478h12.777c2.673,0,2.673,0,2.673-2.563q0-48.765.037-97.566c0-1.977-.622-2.233-2.343-2.233q-41.3.055-82.593,0c-1.757,0-2.2.4-2.2,2.2C15.925,65.458,15.889,84.9,15.889,104.3Zm97.786-.513V33.058c0-.7.073-1.355-.952-1.355-6.956.037-13.875.037-20.831,0-.842,0-1.062.329-.879,1.1a27.121,27.121,0,0,1,.659,3.771c.073,1.281.622,1.611,1.831,1.611,3.881-.073,7.8-.037,11.679,0,2.892.037,3.734.842,3.734,3.661q0,53.268.037,106.5a4.6,4.6,0,0,1-1.5,3.551q-8.951,8.732-17.829,17.573a4.478,4.478,0,0,1-3.4,1.391c-23.98-.037-48,0-71.976-.037-2.892,0-3.661-.805-3.661-3.734V41.771c0-2.782.805-3.588,3.588-3.624,3.881-.037,7.8-.037,11.679,0,1.025,0,1.574-.22,1.611-1.391a11,11,0,0,1,.476-3.075c.659-1.867-.146-2.087-1.757-2.05-6.151.073-12.3.11-18.452,0C5.931,31.593,5.418,32,5.418,33.9q.11,69.8,0,139.558c0,1.721.366,2.233,2.16,2.233q51.95-.11,103.937,0c1.757,0,2.2-.439,2.2-2.2C113.638,150.321,113.675,127.037,113.675,103.789ZM59.419,37.964c8.347,0,16.658-.037,25,.037,1.281,0,1.831-.11,1.538-1.684C84.5,28.665,80.36,23.21,73.038,20.391a3.633,3.633,0,0,1-2.746-3.917,9.774,9.774,0,0,0-3.771-8.311,10.413,10.413,0,0,0-11.13-1.647,10.106,10.106,0,0,0-6.517,9.336c-.11,2.746-1.062,4.174-3.734,5.2-6.81,2.563-10.617,7.761-12.008,14.9-.366,1.831.183,2.087,1.831,2.087C43.127,37.927,51.291,37.964,59.419,37.964ZM98.372,151.895H90.647c-.4,0-.769.11-.769.586v7.871C92.734,157.533,95.48,154.787,98.372,151.895Z" transform="translate(0 0.002)" fill="#074000"/>
      <path id="Path_53" data-name="Path 53" d="M155.826,151.859H136.679c-2.123,0-3.185-.879-3.295-2.6a2.647,2.647,0,0,1,2.453-3.039,7.39,7.39,0,0,1,1.281-.037h37.6c1.611,0,3.075.256,3.588,2.087.549,2.014-.769,3.588-3.148,3.588C168.713,151.9,162.27,151.859,155.826,151.859Z" transform="translate(-84.546 -92.659)" fill="#074000"/>
      <path id="Path_54" data-name="Path 54" d="M155.814,223.173h-19.33c-2.16,0-3.222-1.025-3.185-2.892.037-1.757,1.062-2.709,3.148-2.709,4.613-.037,9.226,0,13.875,0h24.639c1.355,0,2.563.22,3.148,1.647.879,2.087-.439,3.954-2.929,3.954Z" transform="translate(-84.497 -137.907)" fill="#074000"/>
      <path id="Path_55" data-name="Path 55" d="M155.9,302.873H136.384c-2.27,0-3.478-1.391-3.039-3.478.366-1.721,1.611-2.123,3.148-2.123h21.527c5.711,0,11.422-.037,17.134,0,2.526,0,3.881,2.087,2.819,4.137a2.918,2.918,0,0,1-2.929,1.428C168.674,302.873,162.3,302.873,155.9,302.873Z" transform="translate(-84.471 -188.429)" fill="#074000"/>
      <path id="Path_56" data-name="Path 56" d="M150.029,250.637c4.5,0,9.006-.037,13.473,0,2.306,0,3.661,1.611,3.075,3.624a2.675,2.675,0,0,1-2.892,2.014c-9.189,0-18.342.037-27.531-.037a2.558,2.558,0,0,1-2.856-2.819c0-1.757,1.062-2.819,3.075-2.819C140.913,250.637,145.49,250.637,150.029,250.637Z" transform="translate(-84.497 -158.854)" fill="#074000"/>
      <path id="Path_57" data-name="Path 57" d="M149.939,330.472c4.5,0,9.006-.037,13.473,0,2.014,0,3.112,1.025,3.112,2.782.037,1.757-.988,2.746-3.039,2.892-.622.037-1.208.037-1.831.037H140.494c-1.391,0-2.782.037-4.21,0-2.2-.073-3.222-1.062-3.185-2.892s1.1-2.782,3.295-2.782C140.97,330.435,145.473,330.472,149.939,330.472Z" transform="translate(-84.37 -209.474)" fill="#074000"/>
      <path id="Path_58" data-name="Path 58" d="M150.019,184.473c-4.5,0-9.006.037-13.473,0-2.16-.037-3.185-1.062-3.148-2.892.037-1.757,1.1-2.709,3.148-2.709,5.821-.037,11.679,0,17.5,0h9.482c2.123,0,3.258,1.025,3.258,2.819,0,1.831-1.062,2.782-3.258,2.819C158.989,184.473,154.523,184.473,150.019,184.473Z" transform="translate(-84.56 -113.375)" fill="#074000"/>
      <path id="Path_59" data-name="Path 59" d="M147.688,383.3H136.741c-2.306,0-3.441-.988-3.441-2.856s1.1-2.856,3.4-2.892c7.249-.037,14.461-.037,21.71,0,2.27,0,3.478,1.025,3.478,2.819,0,1.831-1.208,2.856-3.441,2.892C154.863,383.3,151.276,383.3,147.688,383.3Z" transform="translate(-84.498 -239.311)" fill="#074000"/>
      <path id="Path_60" data-name="Path 60" d="M88.538,214.229a3.342,3.342,0,0,1-1.025,2.233c-3.368,3.368-6.7,6.736-10.068,10.068-1.538,1.5-2.892,1.464-4.466-.037q-1.538-1.428-2.965-2.965c-1.318-1.391-1.355-2.819-.22-4.027a2.59,2.59,0,0,1,4.027.037c1.208,1.355,1.9.952,2.929-.146,2.27-2.38,4.613-4.65,6.956-6.993a2.825,2.825,0,0,1,4.833,1.831Z" transform="translate(-43.727 -134.088)" fill="#074000"/>
      <path id="Path_61" data-name="Path 61" d="M88.538,293.838a3.4,3.4,0,0,1-1.062,2.27c-3.368,3.368-6.7,6.736-10.068,10.068-1.538,1.5-2.892,1.428-4.43-.073-1.025-.988-2.014-1.94-2.965-2.965-1.318-1.391-1.355-2.856-.22-4.064a2.614,2.614,0,0,1,4.027.037c1.245,1.391,1.9.915,2.929-.146,2.27-2.38,4.613-4.65,6.956-6.993a2.63,2.63,0,0,1,3.185-.586A2.813,2.813,0,0,1,88.538,293.838Z" transform="translate(-43.727 -184.519)" fill="#074000"/>
      <path id="Path_62" data-name="Path 62" d="M71.7,146.381a2.473,2.473,0,0,1,2.233,1.062c.952,1.281,1.611.842,2.526-.11,2.233-2.343,4.54-4.576,6.81-6.846,1.538-1.5,3.075-1.611,4.32-.366s1.172,2.782-.366,4.32q-4.833,4.887-9.665,9.665c-1.757,1.721-3.112,1.721-4.869,0-1.062-1.025-2.087-2.05-3.075-3.112a2.488,2.488,0,0,1-.4-3.039A2.8,2.8,0,0,1,71.7,146.381Z" transform="translate(-43.652 -88.28)" fill="#074000"/>
      <path id="Path_63" data-name="Path 63" d="M88.541,373.456a3.354,3.354,0,0,1-1.025,2.27c-3.368,3.332-6.7,6.736-10.068,10.031-1.5,1.464-2.929,1.464-4.466,0-1.062-.988-2.087-2.014-3.075-3.112a2.771,2.771,0,1,1,3.917-3.917c1.208,1.391,1.9.952,2.929-.146,2.27-2.38,4.613-4.65,6.956-6.956A2.631,2.631,0,0,1,86.894,371,3.03,3.03,0,0,1,88.541,373.456Z" transform="translate(-43.73 -234.995)" fill="#074000"/>
      <path id="Path_64" data-name="Path 64" d="M144.235,415.854c-2.563,0-5.125.037-7.652,0-2.2-.037-3.222-.988-3.185-2.856.037-1.757,1.1-2.709,3.148-2.746,5.162-.037,10.361-.037,15.523,0,2.014,0,3.075.988,3.075,2.782,0,1.831-.952,2.782-3.039,2.819C149.47,415.89,146.834,415.854,144.235,415.854Z" transform="translate(-84.56 -260.04)" fill="#074000"/>
      <path id="Path_65" data-name="Path 65" d="M156.6,30.281a8.127,8.127,0,0,1-8.274,8.164,7.9,7.9,0,0,1-8.127-8.018,8.26,8.26,0,0,1,8.164-8.127A7.99,7.99,0,0,1,156.6,30.281ZM145.873,30.1a2.555,2.555,0,0,0,2.38,2.673,2.411,2.411,0,0,0,2.673-2.123,2.5,2.5,0,0,0-2.38-2.636A2.368,2.368,0,0,0,145.873,30.1Z" transform="translate(-88.87 -14.135)" fill="#074000"/>
    </g>
  </g>
</svg>
