<svg xmlns="http://www.w3.org/2000/svg" width="363" height="378" viewBox="0 0 363 378">
  <g id="Group_32" data-name="Group 32" transform="translate(-230 -2366)">
    <circle id="Ellipse_2" data-name="Ellipse 2" cx="181.5" cy="181.5" r="181.5" transform="translate(230 2366)" fill="#a9df00"/>
    <circle id="Ellipse_1" data-name="Ellipse 1" cx="181.5" cy="181.5" r="181.5" transform="translate(230 2381)" fill="#fff"/>
  </g>
  <g id="_x35_OI2Ff_2_" transform="translate(104.576 112.723)">
    <g id="Group_33" data-name="Group 33" transform="translate(0.033 -0.101)">
      <path id="Path_66" data-name="Path 66" d="M81.458,27.425V40.1c0,2.716-1.449,4.708-4.165,4.889-2.9.181-4.527-1.811-4.708-4.527-.181-11.77-.362-23.54,0-35.31C72.766-1.186,78.2-.1,82.182.082c34.224,1.449,65.007,29.153,70.439,63.377,6.7,41.648-19.918,80.217-60.661,88.366C51.218,160.335,11.562,134.8,2.146,93.88c-5.613-24.808,0-47.261,16.3-66.817,2.354-2.9,5.07-8.692,9.959-4.527s-.362,7.424-2.9,10.321C7.035,54.948,3.957,85.188,17.9,109.815a67.9,67.9,0,0,0,69.715,33.68c27.162-4.165,49.434-25.532,55.41-52.875,7.786-35.672-15.029-71.344-51.064-79.855-10.321-2.354-10.5-2.354-10.5,8.511v8.148Z" transform="translate(-0.033 0.101)" fill="#074000"/>
      <path id="Path_67" data-name="Path 67" d="M20.83,18.9c15.392,11.589,30.783,23,45.813,34.948,5.07,3.984,5.251,9.6.543,14.124-4.165,3.984-9.235,3.622-12.675-.905C42.559,51.675,30.97,35.921,19.2,20.349A11.715,11.715,0,0,0,20.83,18.9Z" transform="translate(15.507 15.506)" fill="#074000"/>
    </g>
  </g>
</svg>
