<svg xmlns="http://www.w3.org/2000/svg" width="112.145" height="120.963" viewBox="0 0 112.145 120.963">
  <g id="h4AOWf.tif_1_" transform="translate(0.105)">
    <g id="Group_7" data-name="Group 7" transform="translate(-0.105 0)">
      <path id="Path_11" data-name="Path 11" d="M79.72,0c1.471.8,1.872,2.072,2.072,3.744.267,2.206-1.6,4.813,1.671,6.618,4.078,2.273,7.086,1.872,9.559-2.072a.923.923,0,0,0,.2-.267c1.4-1.538,2.741-1.538,4.211,0,2.473,2.54,4.947,5.08,7.487,7.487,1.538,1.471,1.671,2.741.067,4.211l-1.2,1.2c-3.142,3.209-3.342,5.95-.8,9.626a2.049,2.049,0,0,0,2.005.8c1.471,0,2.874.067,4.345,0,2.34-.067,3.476.869,3.409,3.342-.067,3.342-.067,6.618,0,9.96.067,2.407-.936,3.476-3.342,3.342h-1c-4.746.067-6.819,1.8-7.621,6.351a2.024,2.024,0,0,0,.8,2.005c.936.936,1.8,1.939,2.808,2.808,2.072,1.738,2.206,3.342.134,5.214-2.407,2.139-4.613,4.479-6.819,6.819-1.6,1.738-3.142,1.939-4.746.067a7.625,7.625,0,0,0-.735-.735c-3.677-3.61-5.348-3.744-9.827-1a1.839,1.839,0,0,0-.936,1.872c0,1.471-.067,2.874,0,4.345.2,2.607-1,3.543-3.543,3.476-3.342-.134-6.618-.067-9.96,0-2.206.067-3.342-.8-3.142-3.142a2.241,2.241,0,0,1,0-.668c.735-4.078-.668-6.484-4.88-7.554-1.738-.468-2.674-.535-3.944.8-5.281,5.615-4.679,5.08-9.827-.067l-.735-.735c-5.548-5.548-5.615-5.615-.6-11.5.869-1,.735-1.738.4-2.941-1.136-4.145-3.209-6.417-7.955-5.482-2.674.535-3.81-.869-3.677-3.61q.2-4.813,0-9.626c-.067-2.473,1.07-3.476,3.409-3.342h1.337c4.211,0,6.752-2.206,7.287-6.351.2-1.4-.936-1.939-1.671-2.674-5.147-5.147-4.88-4.345.134-9.359,1.538-1.538,3.209-3.075,4.679-4.679,1.671-1.8,3.142-1.738,4.679.067a3.088,3.088,0,0,0,.468.468c3.877,3.81,5.482,3.944,10.027,1.2,1.471-.869.668-2.139.869-3.276.334-2.34-1-5.214,2.005-6.752Zm21.525,17.046A18.184,18.184,0,0,1,97.9,14.239c-1.671-2.072-3.142-2.407-4.746-.067-2.206,3.209-4.813,3.744-8.022,1.27A8.407,8.407,0,0,0,81.124,13.9c-3.008-.468-3.61-2.139-3.543-4.88.134-5.014.8-4.479-4.613-4.546H70.963c-1.27-.067-2.005.535-1.738,1.738,1.136,5.415-1.6,7.821-6.484,8.757a5,5,0,0,0-1.8.869c-2.674,2.139-4.813,1.4-6.685-1.136-.4-.535-1-.936-1.4-1.4-.936-1.2-1.8-1.471-2.874-.134a10.81,10.81,0,0,1-2.139,2.139c-2.206,1.6-2.407,3.142-.067,4.813,2.941,2.072,3.944,4.479,1.4,7.688a8.432,8.432,0,0,0-1.538,3.944c-.468,3.209-2.273,4.078-5.348,3.944-4.278-.2-4.278-.067-4.278,4.211,0,.668.067,1.337,0,2.005-.067,1.4.468,2.206,1.872,1.939,5.214-1.07,7.821,1.27,8.557,6.284a3.682,3.682,0,0,0,.8,1.8c2.407,2.874,1.6,5.147-1.136,7.22-.936.735-2.674,1.8-2.139,2.674a18.4,18.4,0,0,0,4.947,5.214c1.27.869,2.206-1.07,2.941-2.005,2.139-2.674,4.278-3.409,7.287-1.27a12.9,12.9,0,0,0,4.88,1.939c2.473.535,3.142,1.872,3.075,4.211-.067,5.147,0,5.014,4.947,5.214,2.741.134,3.944-.668,3.409-3.476-.668-3.677.6-5.95,4.546-6.417a3.107,3.107,0,0,0,1.538-.6c4.145-3.142,7.22-2.273,10.562,1.6,2.273,2.674,3.075-1.337,4.613-2.139,2.407-1.4,2.407-3.075.067-4.746-2.941-2.072-3.944-4.479-1.4-7.688a9.237,9.237,0,0,0,1.6-4.011c.535-3.209,2.273-4.011,5.348-3.944,4.746.2,4.278.8,4.345-4.479V37.569c.067-1.337-.468-2.273-1.872-2.005-5.482,1.136-7.754-1.8-8.69-6.618a5,5,0,0,0-.869-1.8c-2.206-2.674-1.4-4.746,1.07-6.685A6.369,6.369,0,0,0,101.246,17.046Z" transform="translate(-11.063 0)" fill="#074000"/>
      <path id="Path_12" data-name="Path 12" d="M-.035,135.1c0-5.08.067-10.161,0-15.308-.067-2.473,1-3.409,3.342-3.342,4.746.067,9.693-.668,14.239.267,3.209.668,4.88-.668,7.153-1.939,5.482-3.142,11.164-3.409,16.645-.067a38.364,38.364,0,0,0,30.282,4.746c3.543-.869,5.95,0,7.688,2.808,1.136,1.8,2.34,1.6,3.944,1.136,5.95-1.738,11.5-4.345,15.776-8.824,2.808-2.941,7.42-2.34,9.894-.334a7.672,7.672,0,0,1,2.005,10.094C100.907,140.848,86.6,151.61,67.816,156.223a66.485,66.485,0,0,1-44.388-4.345c-1.471-.668-2.607-1.4-3.209,1-.267,1.07-1.6,1.07-2.607,1.07H2.973c-2.273,0-3.142-1-3.075-3.209C.032,145.46-.035,140.246-.035,135.1Zm20.723.936a54.517,54.517,0,0,1-.067,6.618c-.267,2.473.668,3.744,2.941,4.746a63.32,63.32,0,0,0,25.87,6.351c24.8.334,43.92-10.094,57.423-30.817,1.27-1.939,1.4-3.744-.4-5.348-1.872-1.671-3.409-1.07-5.147.535a40.844,40.844,0,0,1-17.046,9.225c-2.206.535-3.744,1.27-4.546,3.61-.535,1.738-2.139,2.741-3.81,3.543a42.978,42.978,0,0,1-29.347,3.81c-1.471-.334-3.008-.735-2.674-2.674.4-2.005,2.005-1.671,3.476-1.4a41.743,41.743,0,0,0,12.233.668,36.377,36.377,0,0,0,14.84-4.412c2.206-1.2,2.674-3.209,1.872-5.415s-2.54-1.872-4.412-1.471c-11.565,2.607-22.394.668-32.555-5.348a12.286,12.286,0,0,0-18.651,10.362C20.621,131.155,20.688,133.561,20.688,136.035Zm-16.578-1c0,4.211.067,8.423,0,12.634,0,1.538.468,2.139,2.072,2.139s2.139-.6,2.072-2.139c-.067-2.206,0-4.412,0-6.618,0-1.538-.134-3.409,2.005-3.476,2.273-.067,2.139,1.8,2.139,3.342V147.2c0,1.337-.134,2.607,1.939,2.607s2.273-1,2.273-2.674c-.067-5.615,0-11.3,0-16.913,0-9.76,0-9.693-9.693-9.559-2.072,0-2.941.468-2.874,2.741C4.243,127.277,4.11,131.155,4.11,135.032Z" transform="translate(0.105 -37.232)" fill="#2db000"/>
      <path id="Path_13" data-name="Path 13" d="M83.717,69A18.819,18.819,0,0,1,65.2,50.282,18.718,18.718,0,1,1,83.717,69Zm14.64-18.517A14.443,14.443,0,1,0,84.051,64.922,14.467,14.467,0,0,0,98.357,50.483Z" transform="translate(-21.544 -10.507)" fill="#074000"/>
    </g>
  </g>
</svg>
