<svg xmlns="http://www.w3.org/2000/svg" width="88.065" height="121.176" viewBox="0 0 88.065 121.176">
  <g id="Group_6" data-name="Group 6" transform="translate(-0.05 -0.137)">
    <path id="Path_7" data-name="Path 7" d="M5.441,63.805a14.426,14.426,0,0,1,.647-3.835,26.168,26.168,0,0,0,.737-3.745,5.96,5.96,0,0,0-1.85-4.888c-1.158-1.263-2.376-2.5-3.474-3.82-1.955-2.331-1.91-4.376-.015-6.767,1.143-1.429,2.511-2.647,3.745-4a6.2,6.2,0,0,0,1.5-5.639c-.286-1.444-.662-2.872-.993-4.316a13.022,13.022,0,0,1-.3-2.3,4.138,4.138,0,0,1,2.737-4.226,21.505,21.505,0,0,1,3.474-1.188c.917-.256,1.82-.556,2.722-.842a5.677,5.677,0,0,0,3.7-3.564c.5-1.293.812-2.632,1.218-3.94A12.141,12.141,0,0,1,20.705,7.35a4.192,4.192,0,0,1,4.166-1.835,27.326,27.326,0,0,1,3.669.737c.872.211,1.76.391,2.632.571a6.035,6.035,0,0,0,5.594-1.609C38.06,4.042,39.248,2.734,40.6,1.636c2.481-2,4.481-2,6.948.015.526.421,1.008.887,1.5,1.353.842.782,1.669,1.579,2.511,2.361a5.906,5.906,0,0,0,5.279,1.5c2.075-.346,4.06-1.068,6.166-1.323a4.381,4.381,0,0,1,4.978,2.722,17.286,17.286,0,0,1,1.308,4.06,7.721,7.721,0,0,0,6.632,6.617,19.007,19.007,0,0,1,3.579,1.128c2.647,1.083,3.579,2.737,3.143,5.564-.241,1.534-.707,3.023-1.038,4.542a13.867,13.867,0,0,0-.346,2.6,5.662,5.662,0,0,0,1.594,3.865c1.173,1.444,2.6,2.632,3.775,4.075,1.729,2.105,1.955,4.045.617,6.046a12.18,12.18,0,0,1-1.4,1.76c-.9.932-1.775,1.895-2.692,2.827a6.126,6.126,0,0,0-1.684,6.136c.406,1.7.782,3.414,1.158,5.128a6.98,6.98,0,0,1,.06,2.166,3.923,3.923,0,0,1-2.256,3.068,32.022,32.022,0,0,1-5.459,1.865c-.376.12-.752.271-1.143.391a5.9,5.9,0,0,0-3.925,4.03c-.617,1.8-.978,3.669-1.7,5.444-1.1,2.692-2.737,3.609-5.609,3.188-1.955-.3-3.835-.932-5.79-1.278A6.267,6.267,0,0,0,51.2,83.325c-1.263,1.143-2.391,2.436-3.73,3.474-2.542,1.97-4.256,2-6.752,0a36.827,36.827,0,0,1-3.474-3.2,6.578,6.578,0,0,0-6.767-1.94c-1.624.406-3.233.872-4.9,1.128-2.933.451-4.662-.511-5.67-3.308-.526-1.429-.9-2.917-1.353-4.376a2,2,0,0,1-.075-.286,6.514,6.514,0,0,0-4.963-4.993c-1.338-.346-2.647-.767-3.955-1.188a12.278,12.278,0,0,1-1.594-.662A4,4,0,0,1,5.441,63.805ZM14.494,44.09A29.6,29.6,0,1,0,44.12,14.524,29.518,29.518,0,0,0,14.494,44.09Z" transform="translate(0 0)" fill="#2db000"/>
    <path id="Path_8" data-name="Path 8" d="M68.266,596.605a1.445,1.445,0,0,1-1.188-.8c-1.744-2.752-3.474-5.5-5.218-8.241-.3-.466-.587-.932-.887-1.4a1.423,1.423,0,0,0-1.91-.737c-3.609.842-7.2,1.7-10.813,2.542-.722.165-1.4.241-1.895-.466a1.6,1.6,0,0,1-.06-1.639q3.113-7.6,6.211-15.219c1.414-3.474,2.842-6.948,4.256-10.422.346-.842.391-.842,1.038-.256a8.576,8.576,0,0,0,7.219,1.97c2.12-.256,4.136-1.008,6.241-1.338a1.831,1.831,0,0,1,1.609.421c1.143,1.053,2.286,2.105,3.414,3.158a12.379,12.379,0,0,0,4.466,2.842c.707.241.451.647.271,1.053l-4.872,11.956q-3.158,7.737-6.346,15.49A1.485,1.485,0,0,1,68.266,596.605Z" transform="translate(-39.124 -475.292)" fill="#2db000"/>
    <path id="Path_9" data-name="Path 9" d="M337.231,577.336c-2.406-.421-4.873-.857-7.339-1.308-1.384-.241-2.752-.5-4.136-.737a1.464,1.464,0,0,0-1.85.872c-1.549,2.767-3.083,5.549-4.632,8.331-.286.526-.587,1.038-.887,1.564a1.5,1.5,0,0,1-1.414.932,1.654,1.654,0,0,1-1.384-1.128L312.3,578.87q-2.82-5.978-5.67-11.926c-.241-.511-.256-.782.361-.993a12.2,12.2,0,0,0,4.331-2.767c.932-.872,1.895-1.714,2.767-2.647a2.888,2.888,0,0,1,3.038-.857,52.217,52.217,0,0,0,5.264,1.188c2.917.406,5.594-.06,7.745-2.256.466-.481.617-.105.782.256,1.2,2.557,2.421,5.113,3.624,7.67,1.353,2.872,2.722,5.745,4.075,8.617A1.425,1.425,0,0,1,337.231,577.336Z" transform="translate(-260.341 -474.295)" fill="#2db000"/>
    <path id="Path_10" data-name="Path 10" d="M180.106,212.692a11.251,11.251,0,0,1-3.369-.331,3.236,3.236,0,0,1-1.985-1.369,61.952,61.952,0,0,0-11.234-12.632c-.241-.211-.481-.436-.707-.662-.692-.707-.632-1.263.2-1.835a5.533,5.533,0,0,1,2.03-.752,14.98,14.98,0,0,1,5.67.045,5.191,5.191,0,0,1,2.587,1.429c1.308,1.2,2.632,2.376,3.925,3.609.481.466.662.406.9-.2a65.772,65.772,0,0,1,8.888-15.775,54.885,54.885,0,0,1,3.865-4.5,5.642,5.642,0,0,1,3.79-1.414,12.812,12.812,0,0,1,5.474.707,4.991,4.991,0,0,1,.812.376c.782.481.857.887.271,1.579-.857,1.008-1.775,1.97-2.617,2.993a64.751,64.751,0,0,0-10.723,19.084,45.738,45.738,0,0,0-2.12,7.354,2.258,2.258,0,0,1-1.669,1.835A11.374,11.374,0,0,1,180.106,212.692Z" transform="translate(-137.88 -151.338)" fill="#074000"/>
  </g>
</svg>
