<svg id="_x30_Jwqko_2_" xmlns="http://www.w3.org/2000/svg" width="122.246" height="120.63" viewBox="0 0 122.246 120.63">
  <g id="Group_8" data-name="Group 8" transform="translate(0 0)">
    <path id="Path_14" data-name="Path 14" d="M0,60.262V10.778A10.482,10.482,0,0,1,8.067.288,11.035,11.035,0,0,1,10.761,0H56.432A10.514,10.514,0,0,1,67.244,10.829q.025,20.005,0,39.994c0,1.356,0,1.356,1.22.712a34.332,34.332,0,0,1,18.777-4.169c14.947,1.1,25.81,8.49,31.893,22.183a36.117,36.117,0,0,1-10.71,43.01,35.3,35.3,0,0,1-22.691,8.05q-37.443.051-74.887.017A10.522,10.522,0,0,1,.186,111.932,10.193,10.193,0,0,1,0,109.559ZM4.118,65.43v44.146c0,4.271,2.661,6.914,6.948,6.914H85.105a37.4,37.4,0,0,0,5.152-.339A32.481,32.481,0,0,0,88.512,51.67c-12.134-1.051-22.03,3.474-29.3,13.235-5.728,7.694-7.423,16.438-5.542,25.86.136.712.339.763.915.39,1.288-.813,2.593-1.593,3.932-2.322A2.04,2.04,0,0,1,61.7,90.7c.017,5.813,0,11.642.017,17.455a2.19,2.19,0,0,1-.458,1.508,2.147,2.147,0,0,1-2.983.271q-7.168-4.245-14.337-8.541c-1.762-1.051-1.745-2.8,0-3.864,1.813-1.1,3.627-2.2,5.457-3.237a.988.988,0,0,0,.542-1.356,30.82,30.82,0,0,1-1.068-6.677c-.542-12.422,4.033-22.607,13.506-30.639a1.667,1.667,0,0,0,.695-1.407Q63.05,37.613,63.058,21c0-1.118,0-1.118-1.1-1.118H5.186c-1.1,0-1.1,0-1.1,1.135Q4.135,43.154,4.118,65.43ZM33.571,15.709H61.94c1.135,0,1.135,0,1.135-1.169V10.812A6.377,6.377,0,0,0,56.5,4.152c-1.983-.017-3.949,0-5.931,0H11.015c-4.237,0-6.863,2.627-6.88,6.863v3.559c0,1.135,0,1.135,1.169,1.135ZM57.618,99.391h0c.017-1.491,0-2.983.017-4.474,0-.593-.169-.678-.695-.373-2.491,1.491-4.982,2.983-7.49,4.44-.542.322-.542.508,0,.83,2.508,1.474,5,2.949,7.49,4.457.542.322.678.186.678-.39C57.6,102.374,57.618,100.883,57.618,99.391Z" transform="translate(0 0)" fill="#074000"/>
    <path id="Path_15" data-name="Path 15" d="M71.463,144.226c3.847,0,7.677-.017,11.524,0,3.61.034,6.44,1.44,8.151,4.762.661,1.288,1.373,2.525,2.067,3.779,1.254,2.271,2.525,4.542,3.762,6.829,1,1.881.017,3.525-2.084,3.525-.373,0-.746.034-1.1,0-.712-.085-.9.186-.9.9.034,3.694.051,7.406-.017,11.1a10.393,10.393,0,0,1-10.473,10.422c-7.287.068-14.574.085-21.861,0a10.41,10.41,0,0,1-10.439-10.71c0-3.593-.017-7.168.017-10.761,0-.763-.237-1.034-.966-.949a6.786,6.786,0,0,1-1.017,0c-2.169-.017-3.152-1.678-2.1-3.559l4.372-7.931c.458-.847.966-1.661,1.39-2.525,1.678-3.389,4.508-4.847,8.151-4.881C63.77,144.192,67.616,144.226,71.463,144.226Zm0,37.215v.034H81.852a6.5,6.5,0,0,0,6.914-6.88v-10c0-1.627.237-1.423-1.508-1.474-.661-.017-.864.169-.83.864a14.524,14.524,0,0,1-9.2,14.252,14.688,14.688,0,0,1-20.183-13.3c-.017-1.813-.034-1.779-1.881-1.813-.763-.017-.949.237-.949.966.034,3.508.034,7,.017,10.507a6.462,6.462,0,0,0,6.762,6.846Zm.237-27.4a10.575,10.575,0,1,0,10.592,10.625A10.621,10.621,0,0,0,71.7,154.038Zm-.2-5.66c-3.932,0-7.846-.017-11.778,0a4.069,4.069,0,0,0-3.8,1.83c-1.559,2.678-3.016,5.423-4.525,8.134-.305.542-.136.678.424.678,1.9-.017,3.779-.017,5.677,0a.862.862,0,0,0,.881-.61,13.786,13.786,0,0,1,2.525-3.779,14.669,14.669,0,0,1,24.064,3.643,1.07,1.07,0,0,0,1.135.746c1.644-.034,3.271-.034,4.914,0,.746.017.813-.169.458-.8-1.339-2.389-2.728-4.745-3.965-7.185A4.553,4.553,0,0,0,83,148.378Z" transform="translate(-37.875 -119.772)" fill="#2db000"/>
    <path id="Path_16" data-name="Path 16" d="M451.537,433a.571.571,0,0,1,.881-.085,13.277,13.277,0,0,0,4.372,1.983,13.553,13.553,0,0,1,6.931,4.457c4.3,5.389,3.254,12.676-2.423,16.828a11.92,11.92,0,0,1-2.711,1.542.944.944,0,0,0-.695,1.085,9.183,9.183,0,0,1-.051,1.525,5.766,5.766,0,0,1-6.084,5.152,5.69,5.69,0,0,1-5.372-5.694,2.008,2.008,0,0,0-1.44-2.322,10.79,10.79,0,0,1-4.067-2.966,2.066,2.066,0,1,1,2.983-2.847,11.11,11.11,0,0,0,4.9,2.9,2.13,2.13,0,0,1,1.745,2.356v2.627a1.643,1.643,0,0,0,1.593,1.813c.983.017,1.627-.695,1.661-1.83.017-.813,0-1.644,0-2.457,0-1.576.39-2.118,1.864-2.593a9.489,9.489,0,0,0,5.609-4.237c2.237-3.864.508-8.66-3.83-10.625a32.39,32.39,0,0,0-3.254-1.169,15.406,15.406,0,0,1-4.677-2.508,4.388,4.388,0,0,1,.729-7.507c.491-.254,1-.525,1.525-.746a2.06,2.06,0,0,1,1.864,3.66,5.325,5.325,0,0,1-.983.491A1.512,1.512,0,0,0,451.537,433Z" transform="translate(-365.601 -355.065)" fill="#2db000"/>
    <path id="Path_17" data-name="Path 17" d="M441.263,377.945c-.288.051-.508.2-.8-.017a14.832,14.832,0,0,0-4.83-2.186,13.124,13.124,0,0,1-7.473-5.626,11.4,11.4,0,0,1,3.1-15.3,12.348,12.348,0,0,1,2.983-1.762.941.941,0,0,0,.678-1.085,8.41,8.41,0,0,1,.322-2.745,5.844,5.844,0,0,1,6.406-3.83,5.728,5.728,0,0,1,4.779,5.728,1.9,1.9,0,0,0,1.373,2.169,11.349,11.349,0,0,1,4.152,3.016,2.064,2.064,0,0,1,.017,3.017,1.993,1.993,0,0,1-2.949-.136,11.315,11.315,0,0,0-5.118-3,1.992,1.992,0,0,1-1.559-2.135c-.017-.932.017-1.864-.017-2.8a1.646,1.646,0,1,0-3.271.068c-.017.881,0,1.745,0,2.627a2.127,2.127,0,0,1-1.746,2.356,11.223,11.223,0,0,0-3.321,1.627c-4.982,3.627-4.389,10.405,1.135,13.151a30.086,30.086,0,0,0,3.576,1.3,14.764,14.764,0,0,1,4.8,2.644,4.373,4.373,0,0,1-.695,7.27c-.525.288-1.051.559-1.593.8a2.063,2.063,0,0,1-2.745-.932,2.1,2.1,0,0,1,.966-2.813C440.093,379.013,440.941,378.86,441.263,377.945Z" transform="translate(-354.174 -286.79)" fill="#2db000"/>
    <path id="Path_18" data-name="Path 18" d="M75.564,626.6H62.346a2.035,2.035,0,0,1-1.932-1.119,1.937,1.937,0,0,1,.136-2.084,2.254,2.254,0,0,1,2.067-.915c5.135.017,10.27,0,15.421,0,3.593,0,7.168-.017,10.761.017a2.04,2.04,0,0,1,1.915,3.1,2.1,2.1,0,0,1-2,1.017C84.309,626.6,79.936,626.6,75.564,626.6Z" transform="translate(-49.975 -516.987)" fill="#2db000"/>
    <path id="Path_19" data-name="Path 19" d="M158.334,50.756c-1.949,0-3.9.017-5.847,0a2.055,2.055,0,0,1-2.288-2.051,2.076,2.076,0,0,1,2.288-2.067c3.9-.017,7.778-.017,11.676,0a2.075,2.075,0,1,1,.017,4.118Z" transform="translate(-124.746 -38.724)" fill="#2db000"/>
    <text id="B" transform="translate(33.44 50.662)" fill="#2db000" font-size="17" font-family="SegoeUI, Segoe UI"><tspan x="-4.873" y="0">B</tspan></text>
  </g>
</svg>
