<svg xmlns="http://www.w3.org/2000/svg" width="93.035" height="120.836" viewBox="0 0 93.035 120.836">
  <g id="sqUqfj.tif_1_" transform="translate(0.017 0.013)">
    <g id="Group_9" data-name="Group 9" transform="translate(-0.017 -0.013)">
      <path id="Path_20" data-name="Path 20" d="M.042,47.537c0-7.313.135-14.626-.054-21.938-.108-4.776,1.7-7.529,6.8-8.446a84.488,84.488,0,0,0,26.9-9.822,94.107,94.107,0,0,0,8.743-5.775c2.86-2.078,5.316-2.1,8.149,0A87.149,87.149,0,0,0,86.635,17.288a8.416,8.416,0,0,1,3.643,1.268A6.686,6.686,0,0,1,93,24.25c-.027,10.848.027,21.722-.027,32.57-.027,5.613.27,11.225-.4,16.811a49.6,49.6,0,0,1-9.148,23.018c-7.5,10.524-17.7,17.432-29.413,22.5a17.626,17.626,0,0,1-14.976,0c-10.065-4.371-19.1-10.092-26.283-18.484C4.413,90.928-.012,79.7.042,66.8.069,60.382.042,53.96.042,47.537ZM75.436,59.275A28.914,28.914,0,1,0,46.455,88.2,29.016,29.016,0,0,0,75.436,59.275Z" transform="translate(0.017 0.013)" fill="#074000"/>
      <path id="Path_21" data-name="Path 21" d="M143.8,183.618a3.913,3.913,0,0,1-1.106,3.022c-5.019,5.046-10.011,10.119-15.084,15.138a3.961,3.961,0,0,1-6.071-.027c-3.346-3.292-6.692-6.638-9.984-9.984a4.048,4.048,0,0,1-.027-5.8c.944-1,1.943-2,2.941-2.941a3.95,3.95,0,0,1,5.775.108c1.133,1.106,2.267,2.159,3.319,3.319.7.756,1.16.81,1.916.027,2.59-2.671,5.235-5.289,7.879-7.906,2.375-2.375,4.479-2.375,6.854-.027.863.837,1.7,1.7,2.564,2.563A3.739,3.739,0,0,1,143.8,183.618Z" transform="translate(-80.541 -129.079)" fill="#2db000"/>
    </g>
  </g>
</svg>
